<?xml version="1.0" encoding="UTF-8"?>
<svg xmlns="http://www.w3.org/2000/svg" viewBox="0 0 31 31">
  <g fill="#015fa6">
    <path d="M15.93,16.71c1.21,0,1.21.74,1.21,1.53v1.79c0,1.77.06,1.97.68,3.54.42,1.05.77,1.97.95,2.37.4.89,1.57,3.97,1.57,4.53,0,.52-.22.52-.83.52h-1.79c-.72,0-.97-.87-1.15-1.61-.16-.64-.76-2.92-.79-3.1-.02-.14-.1-.2-.2-.2-.11.02-.2.11-.2.22-.04.18-.7,2.44-.85,3.08-.16.74-.36,1.61-1.01,1.61h-2.29c-.14,0-.58,0-.58-.52,0-.56,1.19-3.62,1.59-4.53l.06-.14c.36-.84,1.41-3.36,1.41-4.45v-3.04c0-.8,0-1.61,1.21-1.61h1.01Z"/>
    <path d="M14.95,16.66c.85.85.33,1.38-.23,1.93l-1.27,1.27c-1.25,1.25-1.35,1.44-2.02,2.99-.44,1.04-.85,1.94-1.01,2.35-.34.91-1.69,3.91-2.09,4.31-.37.37-.53.21-.95-.21l-1.27-1.27c-.51-.51-.07-1.3.33-1.95.34-.57,1.52-2.6,1.64-2.75.08-.08.08-.2,0-.28,0,0,0,0,0,0-.09-.07-.22-.06-.3.01-.16.1-2.22,1.22-2.78,1.58-.64.41-1.39.88-1.85.43l-1.62-1.62c-.1-.1-.41-.41-.04-.78.4-.4,3.4-1.72,4.33-2.08l.14-.06c.85-.34,3.37-1.38,4.14-2.15l2.15-2.15c.57-.57,1.14-1.14,1.99-.28l.71.71Z"/>
    <path d="M14.29,15.93c0,1.21-.74,1.21-1.53,1.21h-1.79c-1.77,0-1.97.06-3.54.68-1.05.42-1.97.77-2.37.95-.89.4-3.97,1.57-4.53,1.57-.52,0-.52-.22-.52-.83v-1.79c0-.72.87-.97,1.61-1.15.64-.16,2.92-.76,3.1-.79.14-.02.2-.1.2-.2-.02-.11-.11-.2-.22-.2-.18-.04-2.44-.7-3.08-.85-.75-.16-1.61-.36-1.61-1.01v-2.29c0-.14,0-.58.52-.58.56,0,3.62,1.19,4.53,1.59l.14.06c.84.36,3.36,1.41,4.45,1.41h3.04c.8,0,1.61,0,1.61,1.21v1.01Z"/>
    <path d="M14.34,14.95c-.85.85-1.38.33-1.93-.23l-1.27-1.27c-1.25-1.25-1.44-1.35-2.99-2.02-1.04-.44-1.94-.85-2.35-1.01-.91-.34-3.91-1.69-4.31-2.09-.37-.37-.21-.53.21-.95l1.26-1.27c.51-.51,1.3-.07,1.95.33.57.34,2.6,1.52,2.75,1.64.08.08.2.08.28,0,0,0,0,0,0,0,.07-.09.06-.22-.01-.3-.1-.16-1.22-2.22-1.58-2.78-.41-.64-.88-1.39-.43-1.85l1.62-1.62c.1-.1.41-.41.78-.04.4.4,1.72,3.4,2.08,4.33l.06.14c.34.85,1.38,3.37,2.15,4.14l2.15,2.15c.57.57,1.14,1.14.28,1.99l-.71.71Z"/>
    <path d="M15.07,14.29c-1.21,0-1.21-.74-1.21-1.53v-1.79c0-1.77-.06-1.97-.68-3.54-.42-1.05-.77-1.97-.95-2.37-.4-.89-1.57-3.97-1.57-4.53C10.66,0,10.88,0,11.48,0h1.79c.72,0,.97.87,1.15,1.61.16.64.76,2.92.79,3.1.02.14.1.2.2.2.11-.02.2-.11.2-.22.04-.18.7-2.44.85-3.08.16-.75.36-1.61,1.01-1.61h2.29c.14,0,.58,0,.58.52,0,.56-1.19,3.62-1.59,4.53l-.06.14c-.36.84-1.41,3.36-1.41,4.45v3.04c0,.8,0,1.61-1.21,1.61h-1.01Z"/>
    <path d="M16.05,14.34c-.85-.85-.33-1.38.23-1.93l1.27-1.27c1.25-1.25,1.35-1.44,2.02-2.99.44-1.04.85-1.94,1.01-2.35.34-.91,1.69-3.91,2.09-4.31.37-.37.53-.21.95.21l1.27,1.26c.51.51.07,1.3-.33,1.95-.34.57-1.52,2.6-1.64,2.75-.08.08-.08.2,0,.28,0,0,0,0,0,0,.09.07.22.06.3-.01.16-.1,2.22-1.22,2.78-1.58.64-.41,1.39-.88,1.85-.43l1.62,1.62c.1.1.41.41.04.78-.4.4-3.4,1.72-4.33,2.08l-.14.06c-.85.34-3.37,1.38-4.14,2.15l-2.15,2.15c-.57.57-1.14,1.14-1.99.28l-.71-.71Z"/>
    <path d="M16.71,15.07c0-1.21.74-1.21,1.53-1.21h1.79c1.77,0,1.97-.06,3.54-.68,1.05-.42,1.97-.77,2.37-.95.89-.4,3.97-1.57,4.53-1.57.52,0,.52.22.52.83v1.79c0,.72-.87.97-1.61,1.15-.64.16-2.92.76-3.1.79-.14.02-.2.1-.2.2.02.11.11.2.22.2.18.04,2.44.7,3.08.85.74.16,1.61.36,1.61,1.01v2.29c0,.14,0,.58-.52.58-.56,0-3.62-1.19-4.53-1.59l-.14-.06c-.84-.36-3.36-1.41-4.45-1.41h-3.04c-.8,0-1.61,0-1.61-1.21v-1.01Z"/>
    <path d="M16.66,16.05c.85-.85,1.38-.33,1.93.23l1.27,1.27c1.25,1.25,1.44,1.35,2.99,2.02,1.04.44,1.94.85,2.35,1.01.91.34,3.91,1.69,4.31,2.09.37.37.21.53-.21.95l-1.27,1.27c-.51.51-1.3.07-1.95-.33-.57-.34-2.6-1.52-2.75-1.64-.08-.08-.2-.08-.28,0,0,0,0,0,0,0-.07.09-.06.22.01.3.1.16,1.22,2.22,1.58,2.78.41.64.88,1.39.43,1.85l-1.62,1.62c-.1.1-.41.41-.78.04-.4-.4-1.72-3.4-2.08-4.33l-.06-.14c-.34-.85-1.38-3.37-2.15-4.14l-2.15-2.15c-.57-.57-1.14-1.14-.28-1.99l.71-.71Z"/>
  </g>
</svg>
